<?xml version="1.0" encoding="utf-8"?>
<!-- Generator: Adobe Illustrator 24.1.0, SVG Export Plug-In . SVG Version: 6.00 Build 0)  -->
<svg version="1.1" id="logo" xmlns="http://www.w3.org/2000/svg" xmlns:xlink="http://www.w3.org/1999/xlink" x="0px" y="0px"
	 viewBox="0 0 32 32" style="enable-background:new 0 0 32 32;" xml:space="preserve">
<style type="text/css">
	.st0{fill:#FFFFFF;}
</style>
<path class="st0" d="M19.2,27.5c-1.5-7.6-9.4-7-13.6-11.8c-1.7-1.9-2.4-4.5-3.1-7.1c-4,7.5-1.2,16.8,6.3,20.8
	c2.2,1.2,4.7,1.8,7.3,1.8c0.9,0,1.8-0.1,2.7-0.2C19.2,30,19.4,28.7,19.2,27.5z"/>
<path class="st0" d="M16,0.6C11,0.6,6.3,3,3.4,7c0.5,2.5,1.7,4.3,4.8,5.8c2.2,1.1,4.7,1.5,7.1,1.9c5.5,0.9,10.8,2.1,14.4,6.7
	c0.1,0.2,0.2,0.3,0.4,0.5C33.4,14,29.7,5,21.9,1.7C20,1,18,0.6,16,0.6z"/>
</svg>
